<?xml version="1.0" encoding="utf-8"?>
<!-- Generator: Adobe Illustrator 27.6.1, SVG Export Plug-In . SVG Version: 6.00 Build 0)  -->
<svg version="1.1" id="Layer_1" xmlns="http://www.w3.org/2000/svg" xmlns:xlink="http://www.w3.org/1999/xlink" x="0px" y="0px"
	 viewBox="0 0 750 231.8" style="enable-background:new 0 0 750 231.8;" xml:space="preserve">
<style type="text/css">
	.st0{fill:#241F2A;}
	.st1{fill:#241F40;}
	.st2{fill:#FFFFFF;}
	.st3{fill:#DBDBDB;}
</style>
<path class="st0" d="M686.9,108.2l-324.2,89.6v-64.6l324.2-89.6C704.1,75.3,686.9,108.2,686.9,108.2z"/>
<polygon class="st1" points="46.3,153 362.7,197.8 362.7,181.4 75.2,146.3 46.3,148 "/>
<path class="st1" d="M362.7,133.5c11.8,28.5,0,64.3,0,64.3L61.6,150.3V94.4L362.7,133.5z"/>
<path class="st2" d="M355.2,132.6c11.5,28.3,1,58.9,1,58.9L61.6,150V94.4L355.2,132.6z"/>
<path class="st3" d="M355.2,132.6c0.4,1.1,1.5,4.2,1.9,5.3c2.3,7.8,3.5,15.9,3.5,24c0,10-1.4,20-4.3,29.6
	c0.1,0.4-294.8-41.1-294.9-41l-0.4-0.1V150V94.4v-0.5l0.5,0.1l146.9,19.2L355.2,132.6L355.2,132.6z M355.2,132.6
	C283,122.9,131.8,105,62,94.4l0,55.6l-0.4-0.5c0,0.1,295.2,41.6,294.4,41.9c1.5-4.8,2.6-9.6,3.3-14.6
	C361.6,162.1,360.7,146.6,355.2,132.6L355.2,132.6z"/>
<path class="st3" d="M204.1,118.5c49.2,6,104.2,13.4,153.2,20.7C308.2,133.2,253.1,125.8,204.1,118.5L204.1,118.5z"/>
<path class="st3" d="M61.6,114.8c42.1,5,88.9,11.3,130.9,17.6C150.3,127.4,103.5,121.1,61.6,114.8z"/>
<path class="st3" d="M68.6,120.3c71.6,9,151.8,19.8,223.3,30.1C220.2,141.4,140,130.6,68.6,120.3z"/>
<path class="st3" d="M107.3,139.2c74.3,9.2,157.5,20.2,231.6,30.7C264.6,160.7,181.4,149.6,107.3,139.2z"/>
<path class="st3" d="M157.2,150.9c64.8,8.1,137.4,17.9,202.1,27.3C294.5,170.1,221.9,160.3,157.2,150.9z"/>
<path class="st3" d="M99,150.8c83,10.6,176,23.1,258.8,34.9C274.8,175.2,181.8,162.6,99,150.8z"/>
<polygon class="st1" points="362.7,133.5 686.9,43.7 359.3,28.8 46.3,86.9 46.3,92.5 "/>
<path class="st0" d="M371,123.7c40.2-12.2,81.5-23.2,122.8-32.7C453.6,103.2,412.3,114.1,371,123.7z"/>
<path class="st0" d="M293.2,117.9c11.2,0.6,22.8,1.9,33.9,3.2s22.6,3,33.5,5.2c-11.2-0.6-22.8-1.9-33.9-3.2S304.1,120.1,293.2,117.9
	L293.2,117.9z"/>
<path class="st0" d="M55,88c76.1,8.2,152.9,17.8,228.5,28.8C207.3,108.6,130.6,98.9,55,88z"/>
<path class="st0" d="M583,80.1c31.6-9.9,63.7-19,96.1-27.2C647.4,62.9,615.4,71.9,583,80.1z"/>
</svg>
