<?xml version="1.0" encoding="utf-8"?>
<!-- Generator: Adobe Illustrator 27.6.1, SVG Export Plug-In . SVG Version: 6.00 Build 0)  -->
<svg version="1.1" id="Layer_1" xmlns="http://www.w3.org/2000/svg" xmlns:xlink="http://www.w3.org/1999/xlink" x="0px" y="0px"
	 viewBox="0 0 669.2 511.6" style="enable-background:new 0 0 669.2 511.6;" xml:space="preserve">
<style type="text/css">
	.st0{fill:#F2F2F2;}
	.st1{fill:#CCCCCC;}
	.st2{fill:#E6E6E6;}
	.st3{fill:#FFB6B6;}
	.st4{fill:#2F2E41;}
	.st5{fill:#241F40;}
	.st6{fill:#FEAF0E;}
	.st7{fill:#FFB7B7;}
	.st8{fill:#873F42;}
	.st9{fill:#FFFFFF;}
</style>
<path class="st0" d="M623.9,441l1.1-25.7c11.9-6.4,25.2-9.7,38.7-9.8c-18.6,15.2-16.3,44.5-28.9,65c-8.1,12.9-21.6,21.4-36.6,23.1
	l-15.6,9.5c-4.3-24.1,2.1-48.9,17.6-67.8c4.4-5.2,9.3-9.8,14.9-13.8C618.9,431.3,623.9,441,623.9,441z"/>
<path class="st0" d="M387.8,509.5c-7.9-0.6-10,1-22,0h-22l2.9-52.6l34.6,13.9l172.1,4.2l-0.1,0.3c-0.1,0.2-7.7,22.6-1.7,31l0.2,0.4
	l-0.5,0l-157.9,1.4C391.7,508.1,389.5,509.7,387.8,509.5z"/>
<path class="st1" d="M396.7,510.2c-15.3-1.1-31.2,4.9-44.4-1.9l-10.6,0.6l0-0.1c-0.1-0.2-5.1-39.6,5-54.8l0.4-0.7l0.3,3.6l-3.3,49
	l7.4-2.5c17.9,8.4,39.3,2.9,59.8,2.8l139.7-0.5c2.9,0,5.4,2,5.4,4.5l0,0.2l-151.4,0C402.3,510.5,399.5,510.4,396.7,510.2z"/>
<polygon class="st2" points="543.7,485.6 386.4,482.5 386.3,482.4 349.1,468.5 349.8,466.6 386.8,480.5 543.7,483.6 "/>
<polygon class="st2" points="542.8,494 385.6,490.9 385.4,490.9 348.3,476.9 349,475.1 386,488.9 542.9,492 "/>
<polygon class="st2" points="542,502.5 384.8,499.3 384.6,499.3 347.5,485.3 348.2,483.5 385.1,497.3 542,500.5 "/>
<path class="st2" d="M397.8,475.5c-14.6-1-28.8-5-41.7-11.8l-10.9-5.8l0.3-2.9c0.2-0.9,1-1.5,1.8-1.4l1,0l146.6,2.2
	c9.6,0.1,19.1,1.8,28.1,5.1l31.9,11.6l0,0.2c-0.3,2.7-3,4.8-6.2,4.7l-144.4-1.7C402.1,475.8,399.9,475.7,397.8,475.5z"/>
<polygon class="st1" points="554.6,473.2 554.6,473.2 378.8,469.2 378.6,469.1 346.9,454.5 347.3,454 348.2,454 379.1,468.3 
	553.3,472.2 554.7,472.3 "/>
<path class="st1" d="M417.9,455l-2.2,0l-50.4-0.7l-2.4,0c11.5,12.3,37,15.3,74.3,10.6L417.9,455z"/>
<polygon class="st3" points="559.6,161.8 562.7,169 557.7,194.4 506.4,187.2 506.8,156.3 507.8,149.5 "/>
<polygon class="st3" points="586.1,490.9 574.8,490.9 569.4,447.3 586.1,447.3 "/>
<path class="st4" d="M552.5,505.7c0,2.7,2.2,4.8,4.8,4.8h21.5l3.7-7.7l1.4,7.7h8.1l-2.3-27.3l-3.7-0.2l-12.4-0.7l-2-0.1v7.7
	l-17.2,11.9C553.2,502.6,552.5,504.1,552.5,505.7z"/>
<polygon class="st3" points="481.6,440.9 470.3,440.9 463.6,376.7 484.9,375.5 "/>
<path class="st4" d="M447.9,455.7c0,2.7,2.2,4.8,4.8,4.8h21.5l3.7-7.7l1.4,7.7h8.1l-2.3-27.3L482,433l-12.6-0.8l-2.2-0.1v7.7
	L450,451.7C448.7,452.6,447.9,454.1,447.9,455.7z"/>
<path class="st5" d="M590.9,453.3L590.9,453.3l-2.2-70.9c2.9-5.5,2.8-12.1-0.2-17.5l-0.3-0.6l0.8-3.7c1-4.8,0.6-9.8-1.4-14.3
	l-2-66.2c7.2-47-27.3-77.6-27.3-77.6l3.2-24.6l-55.9,1.3l1,23.4l-11.1,38.2c-5.8,57-45.2,92.8-39.2,147.2c0,0.2,0,0.3-0.1,0.5
	c-1.2,3.7-0.8,7.8,1.1,11.2c0.2,0.4,0.4,0.9,0.5,1.4c1.2,9.5,1.4-2.5,3,6.9l-0.3,0.2c-1.1,0.4-1.6,2-1.1,3.5s1.9,2.5,3,2.1l29.9,0.3
	c1.1-0.4,1.6-2,1.1-3.5c-0.5-1.6-1.9-2.5-3-2.1l-1.9,0.9l3.1-10.2l1.1-1c1.9-1.8,2-4.8,0.2-6.7c-0.2-0.3-0.5-0.5-0.8-0.7l0,0
	l3.1-16.5l-0.4-12.5l0.9-14.2l39.2-56.8l15.9,78.4l16.2,85c-0.8,0.7-1.1,1.7-0.9,2.8c0.3,1.4,1.6,2.5,3.1,2.4h22c1.7,0,3-1.3,3-3
	c0-0.3,0-0.5-0.1-0.8C593.5,454.2,592.3,453.3,590.9,453.3z"/>
<path class="st5" d="M571.3,41.1c0,15.3-12.4,27.7-27.7,27.7c-15.3,0-27.7-12.4-27.7-27.7c0-7.2,2.8-14,7.7-19.2l0.1-0.1
	c0.2-0.2,0.4-0.5,0.7-0.7c0,0,0,0,0,0c0,0,0,0,0,0c0.3-0.2,0.6-0.5,0.9-0.8c3.7-5.2,8-9.6,18.2-6.9
	C558.4,17.4,571.3,25.9,571.3,41.1z"/>
<path class="st3" d="M419.4,29.3c-0.2,5.6,4.1,10.3,9.7,10.6c0.6,0,1.2,0,1.8-0.1l71.3,58.5l10.9-19.2l-73.5-51.5
	c-1.1-5.5-6.5-9.1-12-8C422.9,20.6,419.6,24.6,419.4,29.3L419.4,29.3z"/>
<path class="st6" d="M532.3,115.6c0,0,0-2.1-11.4-2c-14.1,0.1-52.8-20.1-49.5-39.1c-3.3,1.5-7.2,0.6-9.5-2.3L480.9,54
	c5.9,0.4,6,4.4,5.5,6.6l15.2,6L541,89.3l-7,22.8L532.3,115.6z"/>
<circle class="st7" cx="536.9" cy="47.5" r="23.2"/>
<path class="st6" d="M505,162.9c-2.6,3.5-2.5,8.4,0.5,11.7c0,0.7,0.1,1.3,1.1,3.8c0.1,0.2,0.3,0.5,0.4,0.7c0,0.1,0.1,0.1,0.1,0.1
	c1,1.3,2.4,2.3,4,2.7l42.5,11.9l5.6,1.6l1,0.3l0.5-7.7c2.6-2.2,3.2-5.9,1.5-8.8l-0.8-1.3l4.6-12.3l0.4-1.2l11.6-31.3l0-2.1l0-2.2
	l0.1-15c0-9.6-4.5-18.7-12.1-24.5c-3.4-2.6-7.4-4.5-11.6-5.4l-0.1,0l-4.6-6.2l-18.6,1.9l-1.5,3.2l-1.9,3.8l-13.5,8l-4.6,10.7
	l-3.1,7.3c-4.8,3.5-7.7,7.9-8.5,13.2c-1.8,11.3,6.1,22.6,7.1,23.8l0.2,12.9L505,162.9z"/>
<path class="st5" d="M561.1,53.6c-0.2,0-0.4-0.1-0.6-0.1c-3.6-0.6-7.2-1.3-10.8-1.9l-0.3-8.2l-4.4,7.3c-10,3.3-19.3,1.4-28.1-2.7
	c-2.9-1.4-5.7-2.9-8.4-4.6c-0.9-13.8,4.7-22.7,15.1-21.8c0.4,0,0.7-0.4,1-0.5c0,0,0,0,0,0c0,0,0,0,0,0c0.6-0.3,1.1-0.5,1.7-0.8
	c9.2-3.6,19.6-1.6,26.8,5.2C560.2,32.3,563.4,43.5,561.1,53.6z"/>
<path class="st8" d="M560.5,53.5c0,0-6.9-25.6-36.3-31.6c0,0-0.1-0.1-0.3-0.1c-0.1-0.1-0.2-0.1-0.3-0.2c0.3-0.2,0.7-0.4,1-0.5
	c0,0,0,0,0,0c0,0,0,0,0,0c0.3-0.3,0.6-0.5,0.9-0.8l0.8,0C526.3,20.4,555.9,15.7,560.5,53.5z"/>
<path class="st4" d="M571.8,215.2c-1.1,1-2.7,1.2-4,0.6c-1.3-0.6-2.5-1.4-3.4-2.5c-3.8-4-6.5-8.9-7.9-14.3l1.3-2.3
	c-1-5.8,2.1-11.4,7.5-13.7c1.5-0.6,3.1-0.8,4.7-0.4c1.6,0.4,2.8,1.6,3.3,3.2c0.5,2.4-1.5,4.6-3.6,6c-3.6,2.4-7.7,3.9-12,4.3
	c5.2,3,9.8,7,13.3,11.9c0.8,1,1.4,2.2,1.8,3.4C573,212.8,572.7,214.2,571.8,215.2z"/>
<path id="be339808-9edc-488a-82d9-9b8c80f783b0-417" class="st1" d="M278.6,511.4h389.3c0.7,0,1.2-0.6,1.2-1.2s-0.6-1.2-1.2-1.2
	H278.6c-0.7,0-1.2,0.6-1.2,1.2S278,511.4,278.6,511.4L278.6,511.4z"/>
<path class="st9" d="M382,190.8v0.7c-1.4-1.6-2.8-3.3-4.2-4.9c-0.6-0.7-1.2-1.4-1.8-2c-2.5-2.9-5.1-5.7-7.6-8.6
	c-2.6-2.8-5.1-5.7-7.7-8.5c-0.6-0.7-1.2-1.4-1.9-2c-0.5-0.6-1.1-1.1-1.7-1.6c-0.6-0.5-1.3-0.9-2-1.1c-0.9-0.2-1.7-0.2-2.6,0
	c-1,0.2-1.9,0.6-2.9,0.9c-1,0.3-1.9,0.6-2.9,0.9c-2,0.6-3.9,1.3-5.8,1.9c-0.1,0-0.2,0-0.3-0.1v0l0,0c0-0.1,0-0.2,0.1-0.3
	c0,0,0,0,0,0c0.5-0.2,1-0.3,1.5-0.5c2-0.7,3.9-1.3,5.9-1.9c1-0.3,2-0.6,2.9-0.9c0.9-0.3,1.9-0.5,2.8-0.6c1.6,0.1,3.1,0.8,4.2,2
	c0.6,0.6,1.2,1.2,1.7,1.8c0.7,0.7,1.3,1.4,2,2.1c2.6,2.9,5.2,5.7,7.8,8.6c2.6,2.9,5.2,5.8,7.7,8.7c0.2,0.2,0.4,0.4,0.6,0.6
	C379.2,187.5,380.6,189.1,382,190.8z"/>
<path class="st9" d="M356.9,166.4c-0.5-0.7-1.2-1.2-2.1-1.5l-0.8,0c6.3,9.8,14.6,18.3,24.3,24.8
	C371.2,181.9,364.1,174.2,356.9,166.4z"/>
<path class="st1" d="M488.8,268.7L456.8,96.8c-1.1-5.8-6.1-10.1-12.1-10.3c-0.3,0-0.5,0-0.8,0L422,87.3l-2.4,0.1l-10.9,0.4l-2.4,0.1
	l-7,0.3l-141.5,5.1c-0.2,0-0.4,0-0.6,0l-31.7-0.7l-11.7-0.2l-0.4,0l-8.7-0.2l-75.5-1.6l-20-0.4l-9.9-0.2l-2.4-0.1l-11.2-0.2
	l-2.4-0.1L72,89.4l-2.4-0.1L57,89.1l-2,0l-11.3-0.2l-1.8,0h-0.3c-6.2,0-11.4,4.5-12.5,10.6l-29,178.3c-1.1,6.9,3.5,13.4,10.4,14.5
	c0.7,0.1,1.4,0.2,2,0.2h166.7c2.5,0,4.8,0.8,6.8,2.2l3.2,2.3c2.2,1.6,4.8,2.5,7.5,2.5c32.2-8.5,66-8.5,98.2,0c3.4,0,6.6-1.3,8.9-3.7
	c2-2,4.7-3.2,7.5-3.3l165.7-8.7c7-0.4,12.3-6.3,11.9-13.3C489,269.8,488.9,269.2,488.8,268.7L488.8,268.7z"/>
<path class="st0" d="M443.4,241.9c-0.4,12.1-10.6,21.6-22.8,21.2c-9.6-0.3-21.1-0.5-33.6-0.2c-40.7,0.9-91.8,6.5-122.6,26.6
	c-3.9,2.5-8.4,3.8-13,3.6c-0.3,0-0.7,0-1-0.1c-4.8-0.4-9.3-2.4-12.8-5.7c-16.9-15.5-55.8-34.3-144.7-35.6c-0.4,0-0.7,0-1.1,0
	c-12.1-0.8-21.3-11.2-20.5-23.3c0,0,0,0,0,0l8.7-138.7l1.3-20.8l2.3-36.4c0.5-7.6,6.8-13.5,14.4-13.5h0.1l53,0.3
	c22.3,1,40.8,3.9,55.5,8.5c5,1.6,9.9,3.5,14.6,5.9c6.4,3.1,12.1,7.4,16.9,12.6c3,3.4,7.1,5.6,11.5,6.2c0.7,0.1,1.4,0.2,2.1,0.2
	c4.1,0.2,8.1-1,11.5-3.3c34.6-23.2,105.1-24.9,144.1-23.9c11.3,0.3,20.5,9.1,21.4,20.3l1.6,20.7l1.6,20.6l9.1,119.2l2.5,33.2
	C443.5,240.2,443.5,241,443.4,241.9z"/>
<path class="st5" d="M106.1,67.7c31.9-10.2,67.5-7.5,97.8,6.9c8.6,4.1,16.8,9.1,24.3,15c2.1,1.7,5.2-1.3,3-3
	c-27.8-21.5-62.7-31.8-97.7-28.7c-9.7,0.9-19.3,2.8-28.5,5.7C102.4,64.4,103.5,68.5,106.1,67.7L106.1,67.7z"/>
<path class="st5" d="M281.8,91.1c29.7-15.6,65.2-19,97.5-10.1c9.2,2.5,18.1,6.1,26.5,10.5c2.4,1.3,4.6-2.4,2.1-3.7
	c-30.8-16.4-67.7-20.2-101.3-11c-9.4,2.6-18.4,6.1-27,10.6C277.2,88.7,279.4,92.4,281.8,91.1z"/>
<path class="st5" d="M281.8,119.5c29.7-15.6,65.2-19,97.5-10.1c9.2,2.5,18.1,6.1,26.5,10.5c2.4,1.3,4.6-2.4,2.1-3.7
	c-30.8-16.4-67.7-20.2-101.3-11c-9.4,2.6-18.4,6.1-27,10.6C277.2,117.1,279.4,120.7,281.8,119.5L281.8,119.5z"/>
<path class="st5" d="M409,146.3c0-0.7-0.4-1.4-1-1.8c-24.6-12.9-52.6-18.1-80.2-15c-0.2,0-0.3,0-0.5,0.1h0c-0.2,0-0.3,0-0.5,0.1
	c-16.4,1.9-32.4,6.8-47,14.5c-0.6,0.4-1,1.1-1,1.8v52.8c0,1.2,1,2.1,2.2,2.1c0.2,0,0.3,0,0.5-0.1c0.7-0.2,1.3-0.4,2-0.5
	c14.8-4,30-6.4,45.3-7.1c0.3,0,0.7,0,1,0c12.5-0.5,25-0.1,37.4,1.3c0.3,0,0.5,0,0.8,0.1c0.6,0.1,1.3,0.1,1.9,0.2
	c0.3,0,0.5,0.1,0.7,0.1c2.5,0.3,4.9,0.7,7.4,1c3.6,0.6,7.1,1.2,10.7,1.9c0.2,0,0.5,0.1,0.7,0.1c5.7,1.1,11.4,2.5,17.1,3.9
	c1.2,0.3,2.3-0.4,2.6-1.5c0-0.2,0.1-0.3,0.1-0.5L409,146.3C409,146.3,409,146.3,409,146.3z"/>
<path class="st6" d="M331.1,132.4c-1.6-0.8-3.3-0.9-5-0.4c-1.5,0.6-2.7,1.7-3.3,3.1c-0.6,1.4-0.9,2.8-1.1,4.3
	c-0.1,0.6-0.1,1.3,0.5,1.6c0.4,0.2,0.9,0.1,1.3-0.2c0.3-0.3,0.6-0.6,0.7-1c2.1-3.2,5.6-5.2,9.5-5.2l1.6,0.6
	C333.9,134.1,332.6,133.1,331.1,132.4z"/>
<path class="st9" d="M348.1,144.6c-1.2-1.8-2.7-3.7-4.9-4.3c-2.6-0.7-5.3,0.7-7.6,2c-6.8,3.9-13.3,8.3-19.7,12.9l0,0.1l14.7-0.9
	c3.5-0.2,7.2-0.5,10.3-2c1.1-0.7,2.4-1.2,3.7-1.4c1.6,0.1,3.2,0.8,4.3,2.1c6.8,6.4,8.7,16.2,16.3,21.8
	C360.3,164.3,354.6,154.2,348.1,144.6z"/>
<path class="st9" d="M329.6,193.2c-0.3,0-0.7,0-1,0c-2.4-0.8-4.8-1.6-7.2-2.3c-1.6-0.4-3.2-0.8-4.8-1.1c-1.8-0.4-3.7-0.7-5.5-1
	c-3.5-0.5-7-0.8-10.6-0.9c-0.1,0-0.2-0.1-0.2-0.2c0-0.1,0.1-0.2,0.2-0.2c0,0,0,0,0,0c0.5,0,0.9,0,1.3,0c3.5,0.1,7.1,0.5,10.6,1
	c1.8,0.3,3.7,0.7,5.5,1c1.6,0.4,3.3,0.8,4.9,1.2C325.1,191.6,327.4,192.3,329.6,193.2z"/>
<path class="st9" d="M370.5,194.9c-0.2,0-0.5-0.1-0.7-0.1c-1-0.8-2-1.6-3-2.3c-1.3-0.9-2.6-1.8-4-2.6c-3-1.8-6.2-3.4-9.4-4.8
	c-5.1-2.1-10.5-3.8-15.9-5c-6.2-1.4-12.5-2.3-18.8-2.9c-6.3-0.7-12.7-1-19-1.4c-0.3,0-0.3-0.4,0-0.4c0.8,0.1,1.6,0.1,2.4,0.2
	c6.4,0.4,12.8,0.9,19.2,1.6c6.3,0.7,12.6,1.8,18.8,3.3c5.3,1.3,10.4,3.1,15.4,5.3c2.9,1.3,5.6,2.8,8.3,4.4c1.7,1.1,3.3,2.2,4.9,3.4
	C369.2,193.9,369.9,194.4,370.5,194.9z"/>
<path class="st9" d="M367.8,194.6c-0.3,0-0.5-0.1-0.8-0.1c-0.3-0.2-0.6-0.5-0.9-0.7c-2.2-1.6-4.5-3-6.8-4.3
	c-2.1-1.2-4.3-2.2-6.6-3.2c-5.1-2.1-10.5-3.8-15.9-5c-6.2-1.4-12.5-2.3-18.8-2.9c-6.3-0.7-12.7-1-19-1.4c-0.3,0-0.3-0.4,0-0.4
	c0.8,0.1,1.6,0.1,2.4,0.2c6.4,0.4,12.8,0.8,19.2,1.6c6.3,0.7,12.6,1.8,18.8,3.3c5.3,1.3,10.4,3.1,15.4,5.3c1.9,0.8,3.7,1.8,5.5,2.8
	C362.9,191.1,365.4,192.8,367.8,194.6z"/>
<path class="st9" d="M389.3,198c-0.2,0-0.5-0.1-0.7-0.1c-0.3-0.3-0.5-0.6-0.7-0.8c-1.2-1.4-2.4-2.8-3.6-4.2
	c-4.7-5.6-9.1-11.3-13.3-17.2c-3.6-5-7-10.1-10.2-15.3c-1.5-2.5-3-5-4.5-7.5c-1.1-2-2.2-3.9-3.3-5.9c-0.3-0.6-0.6-1.1-0.9-1.7
	c-0.7-1.3-1.4-2.7-2.1-4c-0.8-1.6-2-3-3.4-4.1c-0.7-0.5-1.6-0.8-2.4-0.8c-1.2,0-2.4,0.3-3.5,0.9c-7.9,3.7-15.4,8.3-22.3,13.7
	c-6.7,5.2-12.8,11.2-18.1,17.9c-0.2,0.2-0.5,0-0.4-0.2c0.6-0.8,1.3-1.6,1.9-2.4c5.1-6,10.8-11.5,17.1-16.3c0,0,0,0,0.1,0
	c0.6-0.4,1.1-0.9,1.7-1.3c3.5-2.6,7.2-5,10.9-7.1c1.9-1.1,3.9-2.2,5.9-3.2c0.5-0.3,1-0.5,1.5-0.8c0.5-0.3,1-0.5,1.5-0.7
	c1-0.5,2.1-0.8,3.2-0.9c3.9-0.1,6,3.9,7.4,6.6c0.4,0.8,0.9,1.7,1.3,2.5c1.7,3.2,3.5,6.3,5.3,9.4c1.1,1.9,2.3,3.8,3.5,5.7
	c1.7,2.7,3.4,5.4,5.2,8c0,0,0,0,0,0l0,0h0c2.1,3.1,4.2,6.2,6.5,9.3c3.8,5.3,7.9,10.4,12.1,15.4C386.3,194.6,387.8,196.3,389.3,198z"
	/>
<path class="st6" d="M338.7,135.5l-0.4,0.2c-1.8-3.1-5.1-5-8.6-5.2c-5.8-0.4-10.9,3.5-11.4,8.6c-0.2,2.1,0.4,4.2,1.7,5.9l-0.4,0.2
	c-1.4-1.8-2-4-1.8-6.2c0.5-5.4,5.8-9.4,11.8-9C333.5,130.2,336.8,132.3,338.7,135.5z"/>
<path class="st9" d="M310.1,145.9c-3.1-1.3-6.6-1.1-9.5,0.6c5.2,0.8,10.4,1.9,15.5,3.2C313.9,148.6,312.2,146.9,310.1,145.9z"/>
<path class="st9" d="M300.5,146.5l-0.6,0.4C300.1,146.8,300.3,146.6,300.5,146.5L300.5,146.5z"/>
<path class="st9" d="M317.8,148.9c-0.2-0.2-0.5-0.5-0.7-0.7c-1.8-1.9-3.9-3.5-6.2-4.6c-1.2-0.5-2.5-0.8-3.8-0.8
	c-1.3,0-2.7,0.3-3.9,0.8c-0.6,0.2-1.2,0.5-1.7,0.7c-0.7,0.3-1.3,0.6-1.9,0.9c-1.2,0.6-2.4,1.2-3.6,1.8c-2.3,1.3-4.6,2.7-6.8,4.1
	c-1.1,0.8-2.2,1.6-3.3,2.4c-1,0.8-2,1.5-3,2.3c-0.2,0.2-0.5-0.1-0.3-0.3c0.3-0.2,0.5-0.4,0.8-0.6c0.7-0.6,1.5-1.2,2.2-1.7
	c1.4-1,2.8-2,4.2-3c2.2-1.5,4.6-2.9,7-4.1c1.2-0.6,2.4-1.2,3.6-1.8c0.4-0.2,0.7-0.3,1.1-0.5c0.9-0.4,1.8-0.7,2.7-1
	c1.3-0.4,2.7-0.5,4-0.4c1.3,0.2,2.6,0.6,3.7,1.1c2.3,1.3,4.4,3,6.2,4.9C318.3,148.8,318,149.1,317.8,148.9z"/>
<path class="st5" d="M106.1,96c31.9-10.2,67.5-7.5,97.8,6.9c8.6,4.1,16.8,9.1,24.3,15c2.1,1.7,5.2-1.3,3-3
	c-27.8-21.5-62.7-31.8-97.7-28.7c-9.7,0.9-19.3,2.8-28.5,5.7C102.4,92.7,103.5,96.8,106.1,96L106.1,96z"/>
<path class="st5" d="M106.1,124.3c31.9-10.2,67.5-7.5,97.8,6.9c8.6,4.1,16.8,9.1,24.3,15c2.1,1.7,5.2-1.3,3-3
	c-27.8-21.5-62.7-31.8-97.7-28.7c-9.7,0.9-19.3,2.8-28.5,5.7C102.4,121,103.5,125.2,106.1,124.3L106.1,124.3z"/>
<path class="st5" d="M106.1,152.6c31.9-10.2,67.5-7.5,97.8,6.9c8.6,4.1,16.8,9.1,24.3,15c2.1,1.7,5.2-1.3,3-3
	c-27.8-21.5-62.7-31.8-97.7-28.7c-9.7,0.9-19.3,2.8-28.5,5.7C102.4,149.4,103.5,153.5,106.1,152.6L106.1,152.6z"/>
<path class="st5" d="M106.1,181c31.9-10.2,67.5-7.5,97.8,6.9c8.6,4.1,16.8,9.1,24.3,15c2.1,1.7,5.2-1.3,3-3
	c-27.8-21.5-62.7-31.8-97.7-28.7c-9.7,0.9-19.3,2.8-28.5,5.7C102.4,177.7,103.5,181.8,106.1,181L106.1,181z"/>
<path class="st5" d="M106.1,209.3c31.9-10.2,67.5-7.5,97.8,6.9c8.6,4.1,16.8,9.1,24.3,15c2.1,1.7,5.2-1.3,3-3
	c-27.8-21.5-62.7-31.8-97.7-28.7c-9.7,0.9-19.3,2.8-28.5,5.7C102.4,206,103.5,210.1,106.1,209.3L106.1,209.3z"/>
<path class="st6" d="M221.2,33.6v67.9c0,1.4-2.4,2.5-5.5,2.8c0,0-0.1,0-0.1,0c-0.5,0-1.1,0.1-1.7,0.1c-1.8,0-3.5-0.3-5.1-0.8
	c-0.1-0.1-0.3-0.1-0.5-0.2c-0.1-0.1-0.3-0.1-0.4-0.2c-0.8-0.5-1.2-1-1.2-1.6V27.7C211.6,29.2,216.5,31.2,221.2,33.6z"/>
<rect x="249.6" y="49.3" class="st2" width="2.1" height="242.2"/>
<path class="st3" d="M477.9,215.1c5.6-0.5,9.7-5.4,9.2-11c-0.1-0.6-0.2-1.2-0.3-1.8l43.2-20.2l26-42l-20.4-8.2L518,165.8l-44.4,29.6
	c-5.3,1.8-8.1,7.6-6.3,13C468.8,212.8,473.2,215.6,477.9,215.1L477.9,215.1z"/>
<path class="st6" d="M572,99.9c0,0,5.1,1.7-0.5,11.5c-4.5,7.9-26.3,53.4-35.1,62.4c1.9,3.1,1.5,7.1-1,9.7l-20.5-16.3
	c-0.4-5.9,3.5-6.5,5.9-6.3l4.7-16.7l16.5-41.3l26.5-4.3L572,99.9z"/>
<path class="st5" d="M572.4,22.5c1-3.9,8-6.8-4-12.3c-2.9-1.3-2.8-5.9-5.3-8s-6.1-3-9-1.6c-2.6,1.3-4,4.2-4.3,7
	c-0.1,2.9,0.2,5.7,1,8.5l-0.2,0.3c4.8,3.7,9.6,7.3,14.3,11c1.8,1.3,4,2.7,6,1.7C573.1,28.1,571.8,24.9,572.4,22.5z"/>
</svg>
