<?xml version="1.0" encoding="utf-8"?>
<!-- Generator: Adobe Illustrator 27.6.1, SVG Export Plug-In . SVG Version: 6.00 Build 0)  -->
<svg version="1.1" id="Layer_1" xmlns="http://www.w3.org/2000/svg" xmlns:xlink="http://www.w3.org/1999/xlink" x="0px" y="0px"
	 viewBox="0 0 376.9 108.3" style="enable-background:new 0 0 376.9 108.3;" xml:space="preserve">
<style type="text/css">
	.st0{fill:#FFFF00;}
	.st1{fill:#241F40;}
</style>
<circle class="st0" cx="436.5" cy="-194.5" r="0.5"/>
<g>
	<path class="st1" d="M226.7,47.8c3.7-5.8,7.9-18.1,3.2-26c-4.9-8.2-15.3-5.6-22.3,0.4c-7.1,6.1-8.5,12.6-3.2,19
		C209.6,47.4,222,55.5,226.7,47.8z M208.9,24.3c5.3-4.3,13-5,17.4,1.3c4.3,6.2,3.6,16.3-1.7,19.8c-5.2,3.6-13-0.2-17.4-5.5
		C202.9,34.4,203.7,28.7,208.9,24.3z"/>
</g>
<g>
	<path class="st1" d="M78,37.7c0-1.5-0.6-2.9-2-4.4c-2.3-6.4-6.8-8.7-11.6-8.7c-2.8,0-5.7,0.7-8.3,1.9c-2-1.1-4-1.7-5.3-1.7
		c-1.8,0-4.3,0.6-4.9,2.8C45.1,31.1,22.8,73.7,18,83.8c0,2.4,5.3,5.4,7.2,5.4c0.7,0,1.3-0.3,1.9-1.5c0.8-1.7,1.7-3.4,2.6-5.1
		c2,3.6,7.5,4.5,11.4,4.5c14.9,0,26.1-11.7,26.1-20.7c0-5-3.4-9-11.5-9.8c-0.1,0-0.2-0.2-0.2-0.3l0.1-0.1C61.9,53.4,78,45.5,78,37.7
		z M55.5,63.9c0,5.5-11.9,14.3-19.5,14.3c-1.6,0-2.8-0.4-3.5-1c3.2-5.9,6.6-12,10.4-18.4c0.8,0.6,2,0.6,3.4,0.6
		C52.9,59.4,55.5,61.3,55.5,63.9z M46.6,52.7c3.5-5.5,7.4-11.3,11.8-17.4c1.4-0.3,2.7-0.5,3.8-0.5c2.4,0,3.9,0.7,3.9,1.9
		C66,42.8,52.6,50,46.6,52.7z"/>
	<path class="st1" d="M144.6,71.6c5.7-3.4,17.9-11.3,17.9-18.5c0-2.5-1.4-4.5-4.6-4.5c-3.6,0-8.4,3.8-12.5,8.3
		c5.1-8.2,10.8-17.8,10.8-24.2c0-5.3-2.8-6.9-5.8-6.9c-2.2,0-4.5,0.8-5.9,1.5c-0.7,0.3-0.9,0.6-0.9,1c0,0.3,0.2,0.7,0.5,1.2
		c0.9,1.5,1.2,3.3,1.2,5.3c0,13.2-16.4,34.9-21.5,47.2c-0.2,0.4-0.2,0.8-0.2,1.2c0,3.1,4.9,5.5,6.2,5.5c0.9,0,1.5-0.5,1.9-1.6
		c2.6-7.5,5.1-13.6,7.5-18.8c4.8-5.3,10.8-10.9,13.4-10.9c0.4,0,0.6,0.2,0.6,0.5c0,1.9-7.5,9.3-12.1,12.2c0,0-3.6,1.9-3.6,4.8
		c0,8.9,3.6,17.7,10.8,17.7c3.6,0,4.9-3.2,4.9-5.5c0-0.4,0-0.8-0.1-1.1c-5.8-0.2-10.8-7.1-10.8-10.4
		C142.2,74.3,142.5,72.5,144.6,71.6z"/>
	<path class="st1" d="M214.9,24.8c-0.3,0-0.7,0-1.2,0c-0.9,0.3-1.7,0.7-2.5,1.3c-3.4,2.3-5.3,5-4.3,7.9c2.7-0.1,5.7,0.2,6.7,0.2
		c0.6-0.1,0.8-0.3,0.8-0.7c0-0.8-0.8-2-0.8-3.1c0-0.6,0.2-1.2,1-1.6c1.8-0.8,2.9-1.9,2.9-2.8C217.5,25.4,216.8,24.8,214.9,24.8z
		 M198.3,53.1c-2.9,0-5.2,0.2-10.2,0.4c-0.8,0-1.5-0.4-1.5-1.3c1.8-3.7,0-18.1,11.3-17.2c-2.2-4.2,0.8-5.8,3-10
		c-4.6,0.2-14.4,0.5-15.8,0.8c-1.6,0.2-2,0.7-2,1.4c0,0.6,0.3,1.6,0.3,2.1c0,2.4-4.6,12.6-9.9,23.7c-2-0.2-3.8-0.3-4.7-0.3
		c-0.7,0-1.1,0.3-1.1,1.2c0,2,0.4,4,2.8,5.6c-4.1,8.7-8.1,16.9-10,21.2c-0.3,0.8-0.6,1.6-0.6,2.3c0,1.6,5.3,5.7,6.7,5.7
		c0.7,0,1.3-0.5,1.7-1.6c1.5-4.2,10.9-22.2,12.1-23.5c0,0,1.4-1.1,5.7-1.8c6.6-1,11-2.5,11-4.3c0-0.6-0.8-1-0.8-1.3
		c0-0.2,0.2-0.3,1.1-0.4c2.6-1.1,3.8-1.8,3.8-2.2C201.3,53.2,200.3,53.1,198.3,53.1z"/>
	<path class="st1" d="M219.2,49.6c0-1.4-0.7-2.2-1.7-2.7c-0.7-0.3-1.6-0.5-2.6-0.5c-0.7,0-2.7,0.2-4.5,0.7c-1.3,0.3-2.4,0.8-2.9,1.3
		c-0.2,0.2-0.3,0.4-0.3,0.7c0,0.6,0.6,1.2,0.6,2c0,3.1-9.9,19.9-9.9,26.9c0,9.2,3.8,12.1,6.9,12.1c2.2,0,4-1.4,4-2.9
		c0-0.2-0.2-0.6-0.5-0.9c-1.9-1.8-2.8-4-2.8-6.5c0-6.9,11.9-23.7,13.5-29.1C219.1,50.2,219.2,49.9,219.2,49.6z"/>
	<path class="st1" d="M254.1,55.1c0-2.3-3.1-3.5-6-3.7C237.5,55,223.5,80,221.7,81.5c0-4.3,6.8-16.1,15-24.2
		c1.2-0.9,1.7-1.9,1.7-2.8c0-2.6-3.7-4.9-5.7-4.9c-6.3,0-17.6,21.4-17.6,32.6c0,3.6,4.8,6.8,6.6,6.8c0.9,0,1.5-0.5,2-1.6
		c2.7-8.1,12.6-22.4,21.2-26.4c-5.5,6.6-12.7,16.2-12.7,24.6c0,6.6,4.2,8.8,8,8.8c3,0,5.7-1.4,5.7-3c0-0.2-0.2-0.6-0.5-0.9
		c-2.4-2.5-3.5-5.5-3.5-8.8c0-7.8,5.7-17.2,10.9-23.8C253.7,56.8,254.1,55.8,254.1,55.1z"/>
	<path class="st1" d="M297.3,56.9c-0.1-0.1-0.3-0.2-0.5-0.2c-0.2,0-0.4,0.2-0.6,0.5c-1.5,2-9.4,11.8-11.8,14.5
		c-3.2,3.7-6.3,7.4-7.1,8.2c-0.7,0.6-1.4,1.1-2,1.1c-0.5,0-0.9-0.4-0.9-1.4c0-9.9,21.1-36.7,21.1-46.7c0-5.3-2.5-6.7-5.3-6.7
		c-2.1,0-4.4,0.8-5.8,1.5c-0.6,0.3-0.9,0.7-0.9,1c0,0.3,0.2,0.6,0.5,1.2c0.5,1.3,0.6,2.7,0.6,4.1c0,9-7.9,21.1-13,31.8
		c-5.4,11.2-10.9,16-13.4,16c-0.6,0-0.9-0.6-0.9-1.5c0-5.2,7.5-21.3,14.7-21.3c0.4,0,0.8,0.1,1.2,0.2c1.5-1.7,4-5.6,4-8.3
		c0-1.7-1-3-4-3c-9.4,0-21.8,20.9-21.8,32.3c0,4.3,1.7,7.2,6,7.2c2.7,0,7.3-3.8,11.2-9.2c0,7.5,2.5,9.7,5.1,9.7
		c3,0,7.9-6.8,12.6-13.1c1.7-2.3,3.5-4.8,5.1-7c0,0,0,0,0,0c2.7-3.8,5.1-7.3,6.5-9.5C298,58.2,297.8,57.3,297.3,56.9z"/>
	<path class="st1" d="M329.1,56.7c-0.2,0-0.4,0.2-0.6,0.5c-0.2,0.3-0.6,0.8-1,1.3c-2.6,3.4-8.7,10.9-10.8,13.2
		c-5.4,6.2-11.8,12.1-17.4,12.1c-1.8,0-2.6-1-2.6-2.8c0-1,0.1-2.2,0.2-3.3c7-3.6,23.2-14.4,23.2-18.3c0-4.1-3.1-4.5-4.7-5.6
		c-2.4-1.6-2.9-5.9-5.7-5.9c-4,0-8.7,3.8-12.5,9.1c-2.3,3.2-4.3,7-5.7,10.7c0,0,0,0,0,0c-1.3,3.6-2.1,7.2-2.1,10.4
		c0,6.2,7.7,10.8,10.8,10.8c5.1,0,12.9-6.5,18.5-14.1c4.1-5.6,8.3-11.5,10.7-15.2c0.3-0.5,0.6-1,0.9-1.4
		C330.3,58.2,329.8,56.7,329.1,56.7z M312,57.9c0.2,0,0.6,0.1,0.8,0.2c-1.5,3.1-4.6,8.1-14.5,14.8C300.9,65.9,306.3,59.3,312,57.9z"
		/>
	<path class="st1" d="M358.9,56.7c-0.2,0-0.4,0.2-0.7,0.5c-1.5,2-9.4,11.8-11.7,14.5c-3.2,3.7-7.6,8.2-8.4,8.9
		c-0.7,0.7-1.4,1.1-2,1.1c-0.5,0-0.9-0.4-0.9-1.4c0-5.3,8.3-15.2,11.1-18.9c0.7-1,1.1-1.9,1.1-2.6c0-3.1-5.9-3.5-8.2-5.2
		c0.2,0,1.5-2.9,1.5-5.3c0-1.6-0.6-3.1-2.8-3.1c-7,0.1-12.7,4.9-12.7,9.1c0,1.5,0.7,2.9,2.2,4.1c0.5,0.4,1.2,0.8,2,1.1
		c0.4,0.2,0.7,0.3,1.1,0.4c-1.4,1.7-3.5,4.5-4.4,5.6c-0.7,0.9-1,1.6-1,2c0,0.8,0.9,1,1.6,1c0.4,0,0.8-0.1,0.8-0.1
		c2.8-3.8,4.5-6.2,5.5-7.9c0.7,0.2,1.5,0.2,2.3,0.3c-3.2,6.2-7.9,17.2-7.9,23.6c0,3,1,4.9,3.8,4.9c5.1,0,13.5-9.6,17.2-14.7
		c4.6-6.2,9.4-13,11.6-16.5C360.1,58.2,359.6,56.7,358.9,56.7z"/>
</g>
<path class="st1" d="M130.2,55.9c-0.2,0-0.4,0.2-0.6,0.5c-1,1.4-4.5,5.1-6.9,7.9c-2.6,3-5.3,4.2-7.6,4.2h-0.2
	c3.3-5.6,5.7-10.7,5.7-12.1c0-2.7-2.9-6.1-7-6.1c-2.1-1.3-7.3-2.8-9.2-2.8c-1.3,0-2.8,0.9-4.2,2.6c-1-1.2-3.4-1.5-6.5-1.5
	c-2.1-1.3-3.3-1.8-5.2-1.8C82.2,46.8,70,67.6,70,79.6c0,4.9,2,8.2,7.2,8.2c3.5,0,8.5,0.8,12.9-5.4c-0.1,1-1.2,5.7,7.1,5.1
	c4-0.3,9.9-6.8,14.7-14.1c0.6,0.2,1.1,0.2,1.8,0.2c3.7,0,8.2-2.1,11.5-6.8c2.3-3.3,4.8-7,6.2-9.3C131.4,57.4,130.9,55.9,130.2,55.9z
	 M81.9,84c-0.5,0-8-2.3-8-3c0-9.3,10.4-29,13.9-29H88c-1.1,2.3,7.7,4.3,9.9,5C94.8,63.2,84,84,81.9,84z M99.9,85c-0.5,0-7-3.3-7-4
	c0-9.3,11.3-28.3,14.8-28.3h0.2c-1.1,2.3-0.3,4.1,0.9,5.3c4,4,4.8,2.8,5.2,3.7C110.9,67.9,102,85,99.9,85z"/>
<path class="st1" d="M94.8,75.4c-0.1,0.1,1.5,1.2,2.9,2c2.1,1.1,4.5,1.9,4.6,1.7C102.4,78.8,95,75.1,94.8,75.4z"/>
<path class="st1" d="M96.7,72.1c-0.1,0.1,1.5,1.2,2.9,2c2.1,1.1,4.5,1.9,4.6,1.7C104.3,75.5,96.9,71.8,96.7,72.1z"/>
<path class="st1" d="M98.7,68.1c-0.1,0.1,1.5,1.2,2.9,2c2.1,1.1,4.5,1.9,4.6,1.7C106.3,71.5,98.9,67.8,98.7,68.1z"/>
<path class="st1" d="M100.7,64.1c-0.1,0.1,1.5,1.2,2.9,2c2.1,1.1,4.5,1.9,4.6,1.7C108.3,67.5,100.9,63.8,100.7,64.1z"/>
<path class="st1" d="M102.7,60.1c-0.1,0.1,1.5,1.2,2.9,2c2.1,1.1,4.5,1.9,4.6,1.7C110.3,63.5,102.9,59.8,102.7,60.1z"/>
<path class="st1" d="M77.1,73.7c-0.1,0.1,1.5,1.2,2.9,2c2.1,1.1,4.5,1.9,4.6,1.7C84.7,77.1,77.3,73.4,77.1,73.7z"/>
<path class="st1" d="M79.1,69.4c-0.1,0.1,1.5,1.2,2.9,2c2.1,1.1,4.5,1.9,4.6,1.7C86.7,72.8,79.3,69.1,79.1,69.4z"/>
<path class="st1" d="M81.1,65.4c-0.1,0.1,1.5,1.2,2.9,2c2.1,1.1,4.5,1.9,4.6,1.7C88.7,68.8,81.3,65.1,81.1,65.4z"/>
<path class="st1" d="M83.1,61.4c-0.1,0.1,1.5,1.2,2.9,2c2.1,1.1,4.5,1.9,4.6,1.7C90.7,64.8,83.3,61.1,83.1,61.4z"/>
<path class="st1" d="M85.1,57.4c-0.1,0.1,1.5,1.2,2.9,2c2.1,1.1,4.5,1.9,4.6,1.7C92.7,60.8,85.3,57.1,85.1,57.4z"/>
</svg>
